<?xml version="1.0" encoding="iso-8859-1"?>
<svg version="1.1" id="Layer_1" xmlns="http://www.w3.org/2000/svg" xmlns:xlink="http://www.w3.org/1999/xlink" x="0px" y="0px"
	 viewBox="0 0 500 500" style="enable-background:new 0 0 500 500;" xml:space="preserve">
<g>
	<polygon points="447.747,63.251 250.043,6.417 52.332,63.251 52.332,195.661 80.184,195.661 80.184,84.225 250.043,35.398 
		419.895,84.225 419.895,149.17 447.747,149.17 	"/>
	<path d="M251.175,462.795l-1.136,0.479l-1.191-0.501c-1.556-0.652-143.787-61.389-165.734-160.452H54.629
		c20.637,116.637,176.379,183.178,183.465,186.144l11.949,5.036l11.954-5.041c6.624-2.767,143.57-61.162,177.959-164.372h-29.857
		C374.414,410.291,252.688,462.163,251.175,462.795z"/>
	<rect x="351.101" y="186.678" style="fill:#FFFFFF;" width="50.062" height="100.123"/>
	<rect x="401.162" y="186.678" width="50.062" height="102.998"/>
	<rect x="179.265" y="188.275" style="fill:#FFFFFF;" width="49.263" height="98.526"/>
	<rect x="228.527" y="186.048" width="52.405" height="106.347"/>
	<g>
		<path style="fill:#E50B7B;" d="M327.319,163.511v49.529h-24.704v-49.529H154.766v49.529H52.332v18.107v6.125v50.566h27.875
			v-50.566h74.56v74.088h147.849v-74.088h24.704v74.088h147.849V163.511H327.319z M277.79,286.801h-98.526v-49.529V213.04v-24.764
			h98.526v24.764v24.232V286.801z M450.343,286.801h-98.526v-98.526h98.526V286.801z"/>
	</g>
</g>
</svg>