<svg width="1em" height="1em" viewBox="0 0 56 56" fill="none" xmlns="http://www.w3.org/2000/svg">
<g clip-path="url(#clip0_38_23)">
<path d="M48.59 8.12L27.3 2L6 8.12V22.38H9V10.38L27.3 5.12L45.59 10.38V17.38H48.59V8.12Z" fill="#58595B"/>
<path d="M27.42 51.16L27.3 51.21L27.17 51.16C27 51.09 11.68 44.55 9.32 33.88H6.25C8.47 46.44 25.25 53.61 26.01 53.93L27.3 54.47L28.59 53.93C29.3 53.63 44.05 47.34 47.76 36.23H44.54C40.7 45.52 27.59 51.1 27.42 51.17V51.16Z" fill="#58595B"/>
<path d="M43.57 21.42H38.18V32.2H43.57V21.42Z" fill="white"/>
<path d="M48.96 21.42H43.57V32.51H48.96V21.42Z" fill="#231F20"/>
<path d="M24.98 21.59H19.67V32.2H24.98V21.59Z" fill="white"/>
<path d="M30.62 21.35H24.98V32.8H30.62V21.35Z" fill="#231F20"/>
<path d="M35.62 18.92V24.25H32.96V18.92H17.03V24.25H6V32.31H9V26.86H17.03V34.84H32.95V26.86H35.61V34.84H51.53V18.92H35.61H35.62ZM30.29 32.2H19.67V21.59H30.28V32.2H30.29ZM48.88 32.2H38.27V21.59H48.88V32.2Z" fill="#E50B7B"/>
</g>
<defs>
<clipPath id="clip0_38_23">
<rect width="45.54" height="52.46" fill="white" transform="translate(6 2)"/>
</clipPath>
</defs>
</svg>
