<svg width="55" height="55" viewBox="0 0 55 55" fill="none" xmlns="http://www.w3.org/2000/svg">
<g clip-path="url(#clip0_203_7)">
<path d="M47.59 7.12L26.3 1L5 7.12V21.38H8V9.38L26.3 4.12L44.59 9.38V16.38H47.59V7.12Z" fill="#BCBEC0"/>
<path d="M26.42 50.16L26.3 50.21L26.17 50.16C26 50.09 10.68 43.55 8.32 32.88H5.25C7.47 45.44 24.25 52.61 25.01 52.93L26.3 53.47L27.59 52.93C28.3 52.63 43.05 46.34 46.76 35.23H43.54C39.7 44.52 26.59 50.1 26.42 50.17V50.16Z" fill="#BCBEC0"/>
<path d="M42.57 20.42H37.18V31.2H42.57V20.42Z" fill="white"/>
<path d="M47.96 20.42H42.57V31.51H47.96V20.42Z" fill="#231F20"/>
<path d="M23.98 20.59H18.67V31.2H23.98V20.59Z" fill="white"/>
<path d="M29.62 20.35H23.98V31.8H29.62V20.35Z" fill="#231F20"/>
<path d="M34.62 17.92V23.25H31.96V17.92H16.03V23.25H5V31.31H8V25.86H16.03V33.84H31.95V25.86H34.61V33.84H50.53V17.92H34.61H34.62ZM29.29 31.2H18.67V20.59H29.28V31.2H29.29ZM47.88 31.2H37.27V20.59H47.88V31.2Z" fill="#E50B7B"/>
</g>
<defs>
<clipPath id="clip0_203_7">
<rect width="45.54" height="52.46" fill="white" transform="translate(5 1)"/>
</clipPath>
</defs>
</svg>
